inDegrees=no
num_controls=7
num_derivatives=13
num_iterations=33
num_multipliers=7
num_parameters=0
num_slacks=7
num_states=26
objective=0.426602
objective_accelerations=0.058272
objective_balance=0.001136
objective_effort=0.015550
objective_height=0.345610
objective_ligament=0.006034
solver_duration=502.112582
status=Solve_Succeeded
success=true
DataType=double
version=3
OpenSimVersion=4.5
endheader
time	/jointset/ground_pelvis/pelvis_tilt/value	/jointset/ground_pelvis/pelvis_tx/value	/jointset/ground_pelvis/pelvis_ty/value	/jointset/hip_l/hip_flexion_l/value	/jointset/hip_l/hip_adduction_l/value	/jointset/hip_l/hip_rotation_l/value	/jointset/back/lumbar_extension/value	/jointset/patellofemoral_l/patellar_flexion_l/value	/jointset/knee_l/knee_flexion_l/value	/jointset/knee_l/knee_adduction_l/value	/jointset/knee_l/knee_rotation_l/value	/jointset/ankle_l/ankle_angle_l/value	/jointset/subtalar_l/subtalar_angle_l/value	/jointset/ground_pelvis/pelvis_tilt/speed	/jointset/ground_pelvis/pelvis_tx/speed	/jointset/ground_pelvis/pelvis_ty/speed	/jointset/hip_l/hip_flexion_l/speed	/jointset/hip_l/hip_adduction_l/speed	/jointset/hip_l/hip_rotation_l/speed	/jointset/back/lumbar_extension/speed	/jointset/patellofemoral_l/patellar_flexion_l/speed	/jointset/knee_l/knee_flexion_l/speed	/jointset/knee_l/knee_adduction_l/speed	/jointset/knee_l/knee_rotation_l/speed	/jointset/ankle_l/ankle_angle_l/speed	/jointset/subtalar_l/subtalar_angle_l/speed	/forceset/tau_hip_flexion_l	/forceset/tau_hip_adduction_l	/forceset/tau_hip_rotation_l	/forceset/tau_knee_flexion_l	/forceset/tau_ankle_angle_l	/forceset/tau_subtalar_angle_l	/forceset/tau_lumbar_extension	lambda_cid13_p0	lambda_cid13_p1	lambda_cid13_p2	lambda_cid13_p3	lambda_cid13_p4	lambda_cid13_p5	lambda_cid14_p0	/jointset/ground_pelvis/pelvis_tilt/accel	/jointset/ground_pelvis/pelvis_tx/accel	/jointset/ground_pelvis/pelvis_ty/accel	/jointset/hip_l/hip_flexion_l/accel	/jointset/hip_l/hip_adduction_l/accel	/jointset/hip_l/hip_rotation_l/accel	/jointset/back/lumbar_extension/accel	/jointset/patellofemoral_l/patellar_flexion_l/accel	/jointset/knee_l/knee_flexion_l/accel	/jointset/knee_l/knee_adduction_l/accel	/jointset/knee_l/knee_rotation_l/accel	/jointset/ankle_l/ankle_angle_l/accel	/jointset/subtalar_l/subtalar_angle_l/accel	gamma_cid13_p0	gamma_cid13_p1	gamma_cid13_p2	gamma_cid13_p3	gamma_cid13_p4	gamma_cid13_p5	gamma_cid14_p0
1	-0.4510673005242866	-0.001712090096502599	0.5944686525723293	1.69879485779868	-0.3479074939002205	0.1487379109584183	-0.4362633367427405	1.508478904415309	1.508478904415308	0.04569005230751055	-0.1743700529737346	0.4349289584143695	0.2467802990376911	-0.1342984863599918	0.005881185607425908	0.04467298873948091	-0.01540617816497588	-0.004814388417110599	-0.05194789330776476	-0.001200035594593121	-0.181212108402302	-0.1812121084022992	-0.02492682414128405	-0.0003879279850317578	-0.04774715930308727	-0.03658828370165003	-0.2358347514212751	0.08536655503257007	-0.008474795186157822	-0.2964310446363879	-0.009433354770592761	-0.02011620729692701	0.2066810156304754	-39.56310248500392	26.91133849573694	-17.41894328470791	2.177321854001206	-542.6048685820398	-27.56065086000271	-0.02363601574872009	1.42768779062919	0.2848432009280452	2.012749245623885	-6.662344422002296	-0.276129613634047	-1.588951131741265	-0.03302834376235918	-5.579689290818924	-5.579689290818918	-0.8810118002174132	-0.02527650898766962	-0.8305757282324685	-0.9344262970754654	-7.627857692586137e-09	-1.21802789211749e-07	-4.673568588483116e-08	-7.86675636217691e-09	-8.192105588676129e-09	-1.371679882301672e-07	7.044645983914941e-10
1.01	-0.4523395914026564	-0.001639017651728513	0.5950157916635953	1.698308768326471	-0.3479688724079532	0.1481405430387778	-0.4362759073589598	1.506388144290198	1.506388144290202	0.04539605352707729	-0.174373811980316	0.4344098874696618	0.2463686187254925	-0.1201460365047668	0.008741540810627974	0.06474468990934713	-0.08180414685371151	-0.00745645891108292	-0.06752011111815057	-0.001299749140489839	-0.2369368505794019	-0.2369368505794024	-0.03386809398132613	-0.0003646322346912167	-0.05608291973036482	-0.04574298605713149	-0.2363092642496924	0.08532049562291318	-0.008464914855919138	-0.2953149112952467	-0.009997549106340044	-0.0200472178350853	0.2069537582817778	-39.69123543799329	26.83261794149467	-17.32507299101372	2.113399787572693	-542.4183548785692	-27.50506397161553	-0.02365525926506523	1.411070715607621	0.2878642369674241	2.002857167215609	-6.627388582397268	-0.257505973200145	-1.540529142922134	0.003707917069584887	-5.568406802863548	-5.568406802864089	-0.8999723425079242	0.01599696582567928	-0.8374684344703448	-0.9052412122713417	-8.473856275148799e-09	-1.550720107179368e-07	-6.118811051859844e-08	-1.523709443398411e-08	-1.218355103765505e-08	-1.677185738204455e-07	1.444648898366016e-10
1.02	-0.4534699483559479	-0.001537095143532507	0.595763343089469	1.697158926069348	-0.3480565236618117	0.1473876185335894	-0.4362890449552162	1.503740228718974	1.50374022871899	0.04501278449492441	-0.1743773651596356	0.4338069804737818	0.2458655415882414	-0.1059117013440011	0.0116511982918099	0.08475545566110695	-0.1481567351459715	-0.01006893764190689	-0.08305921041792842	-0.001313431603459499	-0.2926431976248251	-0.2926431976248289	-0.04278087448578442	-0.0003467625331191458	-0.06451436953744293	-0.05486764871208608	-0.2367837770781668	0.08527443621325051	-0.00845503452569607	-0.2941987779541036	-0.01056174344207653	-0.0199782283732459	0.2072265009330228	-39.82130856097464	26.75120911085255	-17.22731520350121	2.039128737463391	-542.3425967846027	-27.45076144805369	-0.02367616875684393	1.444064851737407	0.2947036565239362	2.000562162002594	-6.653268342707108	-0.2702112610043156	-1.582327429619615	-0.01582212717663814	-5.576010264483588	-5.576010264483575	-0.8753139331006505	-0.02636171874127494	-0.8497136041927261	-0.9284183569700774	-9.42324184389222e-09	-1.850361007571348e-07	-7.382081540225574e-08	-2.174160363921241e-08	-1.606900734332688e-08	-1.926412001862316e-07	-6.756963735546082e-10
1.03	-0.4544574774270563	-0.001405785392976024	0.5967106053776461	1.695345905342995	-0.3481701059103915	0.1464794932178602	-0.4363017680366525	1.500535490972485	1.500535490972485	0.04454063286499609	-0.1743807294897119	0.4331192576131432	0.2452714512542301	-0.09157272309882906	0.0146234400813842	0.1046777601802645	-0.2144285814564499	-0.01263879598949447	-0.09855245375715339	-0.001205024449755258	-0.3482864482230665	-0.3482864482230679	-0.05164105356506562	-0.0003238273061166228	-0.07304825927021709	-0.06393838242812563	-0.237134457498969	0.0852525775397585	-0.00842871242203874	-0.2927731758800572	-0.01119165634534015	-0.01988360909636515	0.2074390766285231	-39.9459042901459	26.64179602012519	-17.1069151668478	1.950753530451936	-541.9770618383573	-27.37439586462816	-0.02370378936073223	1.432021095108817	0.3003819924007597	1.985174313530118	-6.611320320983237	-0.2490485133238801	-1.530826474870056	0.02809617263972387	-5.555796635358969	-5.555796635358648	-0.8901301464610684	0.01693239410331105	-0.8579470681585623	-0.8945507911795132	-1.037368238188239e-08	-2.14966464965037e-07	-8.643495171703435e-08	-2.823727785600624e-08	-1.995338212712823e-08	-2.175063983966656e-07	-1.498512346689047e-09
1.04	-0.4553009753588738	-0.001244373714078766	0.5978565126543455	1.692870730644374	-0.3483091218207858	0.1454168347309795	-0.4363126222393473	1.496774857884441	1.496774857884428	0.04398012739409709	-0.1743838022173792	0.4323456517731108	0.2445870236006064	-0.07710547348558555	0.01767158395996494	0.1244844533657154	-0.2805875295975313	-0.01515567000459529	-0.113965844648222	-0.0009396558562130844	-0.4038222659358931	-0.4038222659358922	-0.06045164268912057	-0.0002884420518212878	-0.08169096541654632	-0.07293511263450937	-0.2374851379198244	0.08523071886625289	-0.00840239031820871	-0.2913475738060035	-0.01182156924859694	-0.01978898981950613	0.207651652323969	-40.07272585948722	26.52979526229862	-16.98270147106841	1.852372743065665	-541.723940124427	-27.3001577335969	-0.02373314400181169	1.469719125351776	0.3098840743251402	1.977439895261234	-6.630688708827662	-0.2596143945069007	-1.566356939988275	0.01557016079129407	-5.554523687400652	-5.554523687400654	-0.8653959420553961	-0.02387171328261128	-0.8714768869038889	-0.9136176550388919	-1.16825333224693e-08	-2.436709782401813e-07	-9.571267517944111e-08	-3.40761290804293e-08	-2.38370370599737e-08	-2.361939720579772e-07	-3.193638744026329e-09
1.05	-0.4559990062437008	-0.001052037845289735	0.5991998147696039	1.689734566681407	-0.3484730149889018	0.1442003349797361	-0.4363198825359375	1.492459600447552	1.492459600447546	0.04333199723641536	-0.1743864668522879	0.4314851172061976	0.2438130922456757	-0.06246352765376285	0.02081466400196203	0.1441474773837826	-0.3466241301994015	-0.01761259654967251	-0.1293228672537286	-0.0004711759036367944	-0.4591916206757717	-0.4591916206757694	-0.06915315570846149	-0.0002440101717095827	-0.09042947970309603	-0.08183127722808077	-0.237780266315966	0.08523366206142434	-0.008364436223826483	-0.2895496642092412	-0.01257581655916875	-0.01966781677026512	0.2078616203031961	-40.21262300860673	26.38969774712158	-16.83247289940216	1.736941700621784	-541.190468789288	-27.19686527767109	-0.02376810236182007	1.467006064032771	0.3193730618534848	1.956454226369847	-6.58697866194944	-0.2371546336237643	-1.518708236043584	0.06867104858762237	-5.522500251768991	-5.522500251768816	-0.8693712193008905	0.01863509003556157	-0.8770836044064552	-0.8745775312027452	-1.300258458813735e-08	-2.72337183673677e-07	-1.048861357402113e-07	-3.98944545863408e-08	-2.772066949747681e-08	-2.546884949521288e-07	-4.916024842119945e-09
1.06	-0.456549502919826	-0.0008277005575376775	0.6007388912393004	1.685938670127187	-0.3486611619922944	0.1428305983393985	-0.4363212212059079	1.487591777686366	1.487591777686379	0.042597483501087	-0.1743886802781208	0.4305367885154436	0.2429508069108719	-0.04759863174452719	0.0240718677525704	0.163639324253432	-0.412534047844585	-0.02000643705937354	-0.1446132224677036	0.0002446694928145724	-0.5143353307951556	-0.514335330795152	-0.07772835822490522	-0.0001982002364971081	-0.09924979018468728	-0.09060590860911152	-0.2380753947122133	0.08523660525658731	-0.008326482129325326	-0.287751754612472	-0.01333006386972308	-0.01954664372102629	0.2080715882823153	-40.35512614875464	26.24718963533353	-16.67858515759779	1.611646771251874	-540.771450148647	-27.0966595460025	-0.02380484719615395	1.514309140834448	0.3327088160473083	1.943204465577673	-6.605352117490296	-0.2469971874315953	-1.553023461681888	0.06504324956648336	-5.50939476330173	-5.509394763301744	-0.8401338414759549	-0.02359610226234556	-0.8878361259123506	-0.8893110125307406	-1.419422030187039e-08	-2.9708329601272e-07	-1.06366761999234e-07	-4.501198169031556e-08	-3.081672604688055e-08	-2.653099313856707e-07	-7.743565720914438e-09
